<?xml version="1.0" encoding="UTF-8" standalone="no"?>
<!DOCTYPE svg PUBLIC "-//W3C//DTD SVG 1.1//EN"
 "http://www.w3.org/Graphics/SVG/1.1/DTD/svg11.dtd">
<!-- Generated by graphviz version 2.38.0 (20140413.2041)
 -->
<!-- Title: %3 Pages: 1 -->
<svg width="615pt" height="704pt"
 viewBox="0.00 0.00 615.00 704.00" xmlns="http://www.w3.org/2000/svg" xmlns:xlink="http://www.w3.org/1999/xlink">
<g id="graph0" class="graph" transform="scale(1 1) rotate(0) translate(4 700)">
<title>%3</title>
<polygon fill="white" stroke="none" points="-4,4 -4,-700 611,-700 611,4 -4,4"/>
<!-- 21 -->
<g id="node1" class="node"><title>21</title>
<g id="a_node1"><a xlink:title="zoneamento_serial.py">
<polygon fill="#0d1274" stroke="#0d1274" points="175.5,-420 3.5,-420 3.5,-368 175.5,-368 175.5,-420"/>
<text text-anchor="middle" x="89.5" y="-408" font-family="Arial" font-size="10.00" fill="#ffffff">zoneamento_serial:136:filterResults</text>
<text text-anchor="middle" x="89.5" y="-397" font-family="Arial" font-size="10.00" fill="#ffffff">1.22%</text>
<text text-anchor="middle" x="89.5" y="-386" font-family="Arial" font-size="10.00" fill="#ffffff">(0.31%)</text>
<text text-anchor="middle" x="89.5" y="-375" font-family="Arial" font-size="10.00" fill="#ffffff">1×</text>
</a>
</g>
</g>
<!-- 385 -->
<g id="node2" class="node"><title>385</title>
<g id="a_node2"><a xlink:title="zoneamento_serial.py">
<polygon fill="#0d0f74" stroke="#0d0f74" points="179,-328 0,-328 0,-276 179,-276 179,-328"/>
<text text-anchor="middle" x="89.5" y="-316" font-family="Arial" font-size="10.00" fill="#ffffff">zoneamento_serial:37:phenogladAlert</text>
<text text-anchor="middle" x="89.5" y="-305" font-family="Arial" font-size="10.00" fill="#ffffff">0.63%</text>
<text text-anchor="middle" x="89.5" y="-294" font-family="Arial" font-size="10.00" fill="#ffffff">(0.63%)</text>
<text text-anchor="middle" x="89.5" y="-283" font-family="Arial" font-size="10.00" fill="#ffffff">160×</text>
</a>
</g>
</g>
<!-- 21&#45;&gt;385 -->
<g id="edge1" class="edge"><title>21&#45;&gt;385</title>
<path fill="none" stroke="#0d0f74" stroke-width="0.5" d="M89.5,-367.93C89.5,-356.712 89.5,-343.422 89.5,-331.798"/>
<polygon fill="#0d0f74" stroke="#0d0f74" stroke-width="0.5" points="90.7251,-331.748 89.5,-328.248 88.2751,-331.748 90.7251,-331.748"/>
<text text-anchor="middle" x="103.5" y="-351" font-family="Arial" font-size="10.00" fill="#0d0f74">0.63%</text>
<text text-anchor="middle" x="103.5" y="-340" font-family="Arial" font-size="10.00" fill="#0d0f74">160×</text>
</g>
<!-- 54 -->
<g id="node3" class="node"><title>54</title>
<g id="a_node3"><a xlink:title="/usr/lib/python3.6/subprocess.py">
<polygon fill="#0d1976" stroke="#0d1976" points="430,-144 271,-144 271,-92 430,-92 430,-144"/>
<text text-anchor="middle" x="350.5" y="-132" font-family="Arial" font-size="10.00" fill="#ffffff">subprocess:1208:_execute_child</text>
<text text-anchor="middle" x="350.5" y="-121" font-family="Arial" font-size="10.00" fill="#ffffff">2.88%</text>
<text text-anchor="middle" x="350.5" y="-110" font-family="Arial" font-size="10.00" fill="#ffffff">(0.38%)</text>
<text text-anchor="middle" x="350.5" y="-99" font-family="Arial" font-size="10.00" fill="#ffffff">160×</text>
</a>
</g>
</g>
<!-- 204 -->
<g id="node4" class="node"><title>204</title>
<g id="a_node4"><a xlink:title="~">
<polygon fill="#0d1174" stroke="#0d1174" points="262,-52 25,-52 25,-0 262,-0 262,-52"/>
<text text-anchor="middle" x="143.5" y="-40" font-family="Arial" font-size="10.00" fill="#ffffff">~:0:&lt;built&#45;in method _posixsubprocess.fork_exec&gt;</text>
<text text-anchor="middle" x="143.5" y="-29" font-family="Arial" font-size="10.00" fill="#ffffff">1.13%</text>
<text text-anchor="middle" x="143.5" y="-18" font-family="Arial" font-size="10.00" fill="#ffffff">(1.13%)</text>
<text text-anchor="middle" x="143.5" y="-7" font-family="Arial" font-size="10.00" fill="#ffffff">160×</text>
</a>
</g>
</g>
<!-- 54&#45;&gt;204 -->
<g id="edge2" class="edge"><title>54&#45;&gt;204</title>
<path fill="none" stroke="#0d1174" stroke-width="0.5" d="M292.839,-91.93C265.365,-79.9846 232.49,-65.6913 204.588,-53.5599"/>
<polygon fill="#0d1174" stroke="#0d1174" stroke-width="0.5" points="204.909,-52.3637 201.21,-52.0915 203.932,-54.6105 204.909,-52.3637"/>
<text text-anchor="middle" x="286.5" y="-75" font-family="Arial" font-size="10.00" fill="#0d1174">1.13%</text>
<text text-anchor="middle" x="286.5" y="-64" font-family="Arial" font-size="10.00" fill="#0d1174">160×</text>
</g>
<!-- 223 -->
<g id="node5" class="node"><title>223</title>
<g id="a_node5"><a xlink:title="~">
<polygon fill="#0d1174" stroke="#0d1174" points="429.5,-52 271.5,-52 271.5,-0 429.5,-0 429.5,-52"/>
<text text-anchor="middle" x="350.5" y="-40" font-family="Arial" font-size="10.00" fill="#ffffff">~:0:&lt;built&#45;in method posix.read&gt;</text>
<text text-anchor="middle" x="350.5" y="-29" font-family="Arial" font-size="10.00" fill="#ffffff">1.11%</text>
<text text-anchor="middle" x="350.5" y="-18" font-family="Arial" font-size="10.00" fill="#ffffff">(1.11%)</text>
<text text-anchor="middle" x="350.5" y="-7" font-family="Arial" font-size="10.00" fill="#ffffff">160×</text>
</a>
</g>
</g>
<!-- 54&#45;&gt;223 -->
<g id="edge3" class="edge"><title>54&#45;&gt;223</title>
<path fill="none" stroke="#0d1174" stroke-width="0.5" d="M350.5,-91.93C350.5,-80.7116 350.5,-67.4223 350.5,-55.7978"/>
<polygon fill="#0d1174" stroke="#0d1174" stroke-width="0.5" points="351.725,-55.7477 350.5,-52.2477 349.275,-55.7478 351.725,-55.7477"/>
<text text-anchor="middle" x="364.5" y="-75" font-family="Arial" font-size="10.00" fill="#0d1174">1.11%</text>
<text text-anchor="middle" x="364.5" y="-64" font-family="Arial" font-size="10.00" fill="#0d1174">160×</text>
</g>
<!-- 83 -->
<g id="node6" class="node"><title>83</title>
<g id="a_node6"><a xlink:title="zoneamento_serial.py">
<polygon fill="#fc1200" stroke="#fc1200" points="390.5,-420 184.5,-420 184.5,-368 390.5,-368 390.5,-420"/>
<text text-anchor="middle" x="287.5" y="-408" font-family="Arial" font-size="10.00" fill="#ffffff">zoneamento_serial:114:executeSimulations</text>
<text text-anchor="middle" x="287.5" y="-397" font-family="Arial" font-size="10.00" fill="#ffffff">98.25%</text>
<text text-anchor="middle" x="287.5" y="-386" font-family="Arial" font-size="10.00" fill="#ffffff">(0.81%)</text>
<text text-anchor="middle" x="287.5" y="-375" font-family="Arial" font-size="10.00" fill="#ffffff">1×</text>
</a>
</g>
</g>
<!-- 244 -->
<g id="node7" class="node"><title>244</title>
<g id="a_node7"><a xlink:title="~">
<polygon fill="#0d0f74" stroke="#0d0f74" points="345.5,-328 201.5,-328 201.5,-276 345.5,-276 345.5,-328"/>
<text text-anchor="middle" x="273.5" y="-316" font-family="Arial" font-size="10.00" fill="#ffffff">~:0:&lt;built&#45;in method io.open&gt;</text>
<text text-anchor="middle" x="273.5" y="-305" font-family="Arial" font-size="10.00" fill="#ffffff">0.66%</text>
<text text-anchor="middle" x="273.5" y="-294" font-family="Arial" font-size="10.00" fill="#ffffff">(0.59%)</text>
<text text-anchor="middle" x="273.5" y="-283" font-family="Arial" font-size="10.00" fill="#ffffff">487×</text>
</a>
</g>
</g>
<!-- 83&#45;&gt;244 -->
<g id="edge4" class="edge"><title>83&#45;&gt;244</title>
<path fill="none" stroke="#0d0f73" stroke-width="0.5" d="M283.6,-367.93C281.855,-356.712 279.788,-343.422 277.98,-331.798"/>
<polygon fill="#0d0f73" stroke="#0d0f73" stroke-width="0.5" points="279.176,-331.518 277.427,-328.248 276.755,-331.894 279.176,-331.518"/>
<text text-anchor="middle" x="296.5" y="-351" font-family="Arial" font-size="10.00" fill="#0d0f73">0.57%</text>
<text text-anchor="middle" x="296.5" y="-340" font-family="Arial" font-size="10.00" fill="#0d0f73">320×</text>
</g>
<!-- 270 -->
<g id="node8" class="node"><title>270</title>
<g id="a_node8"><a xlink:title="/usr/lib/python3.6/subprocess.py">
<polygon fill="#f92501" stroke="#f92501" points="458.5,-328 354.5,-328 354.5,-276 458.5,-276 458.5,-328"/>
<text text-anchor="middle" x="406.5" y="-316" font-family="Arial" font-size="10.00" fill="#ffffff">subprocess:259:call</text>
<text text-anchor="middle" x="406.5" y="-305" font-family="Arial" font-size="10.00" fill="#ffffff">96.39%</text>
<text text-anchor="middle" x="406.5" y="-294" font-family="Arial" font-size="10.00" fill="#ffffff">(0.10%)</text>
<text text-anchor="middle" x="406.5" y="-283" font-family="Arial" font-size="10.00" fill="#ffffff">160×</text>
</a>
</g>
</g>
<!-- 83&#45;&gt;270 -->
<g id="edge5" class="edge"><title>83&#45;&gt;270</title>
<path fill="none" stroke="#f92501" stroke-width="3.86" d="M320.648,-367.93C334.458,-357.485 350.642,-345.245 365.213,-334.225"/>
<polygon fill="#f92501" stroke="#f92501" stroke-width="3.86" points="367.37,-336.895 373.117,-328.248 363.232,-331.424 367.37,-336.895"/>
<text text-anchor="middle" x="378.5" y="-351" font-family="Arial" font-size="10.00" fill="#f92501">96.39%</text>
<text text-anchor="middle" x="378.5" y="-340" font-family="Arial" font-size="10.00" fill="#f92501">160×</text>
</g>
<!-- 140 -->
<g id="node11" class="node"><title>140</title>
<g id="a_node11"><a xlink:title="/usr/lib/python3.6/subprocess.py">
<polygon fill="#0d1a77" stroke="#0d1a77" points="425.5,-236 303.5,-236 303.5,-184 425.5,-184 425.5,-236"/>
<text text-anchor="middle" x="364.5" y="-224" font-family="Arial" font-size="10.00" fill="#ffffff">subprocess:588:__init__</text>
<text text-anchor="middle" x="364.5" y="-213" font-family="Arial" font-size="10.00" fill="#ffffff">3.03%</text>
<text text-anchor="middle" x="364.5" y="-202" font-family="Arial" font-size="10.00" fill="#ffffff">(0.10%)</text>
<text text-anchor="middle" x="364.5" y="-191" font-family="Arial" font-size="10.00" fill="#ffffff">160×</text>
</a>
</g>
</g>
<!-- 270&#45;&gt;140 -->
<g id="edge12" class="edge"><title>270&#45;&gt;140</title>
<path fill="none" stroke="#0d1a77" stroke-width="0.5" d="M394.801,-275.93C389.52,-264.615 383.257,-251.193 377.799,-239.497"/>
<polygon fill="#0d1a77" stroke="#0d1a77" stroke-width="0.5" points="378.873,-238.901 376.282,-236.248 376.652,-239.937 378.873,-238.901"/>
<text text-anchor="middle" x="404.5" y="-259" font-family="Arial" font-size="10.00" fill="#0d1a77">3.03%</text>
<text text-anchor="middle" x="404.5" y="-248" font-family="Arial" font-size="10.00" fill="#0d1a77">160×</text>
</g>
<!-- 275 -->
<g id="node15" class="node"><title>275</title>
<g id="a_node15"><a xlink:title="/usr/lib/python3.6/subprocess.py">
<polygon fill="#f54302" stroke="#f54302" points="569,-236 458,-236 458,-184 569,-184 569,-236"/>
<text text-anchor="middle" x="513.5" y="-224" font-family="Arial" font-size="10.00" fill="#ffffff">subprocess:1414:wait</text>
<text text-anchor="middle" x="513.5" y="-213" font-family="Arial" font-size="10.00" fill="#ffffff">93.24%</text>
<text text-anchor="middle" x="513.5" y="-202" font-family="Arial" font-size="10.00" fill="#ffffff">(0.11%)</text>
<text text-anchor="middle" x="513.5" y="-191" font-family="Arial" font-size="10.00" fill="#ffffff">320×</text>
</a>
</g>
</g>
<!-- 270&#45;&gt;275 -->
<g id="edge13" class="edge"><title>270&#45;&gt;275</title>
<path fill="none" stroke="#f54302" stroke-width="3.73" d="M436.305,-275.93C448.608,-265.582 463.006,-253.472 476.012,-242.532"/>
<polygon fill="#f54302" stroke="#f54302" stroke-width="3.73" points="478.245,-245.09 483.483,-236.248 473.875,-239.893 478.245,-245.09"/>
<text text-anchor="middle" x="490.5" y="-259" font-family="Arial" font-size="10.00" fill="#f54302">93.24%</text>
<text text-anchor="middle" x="490.5" y="-248" font-family="Arial" font-size="10.00" fill="#f54302">160×</text>
</g>
<!-- 121 -->
<g id="node9" class="node"><title>121</title>
<g id="a_node9"><a xlink:title="~">
<polygon fill="#ff0000" stroke="#ff0000" points="233,-696 66,-696 66,-644 233,-644 233,-696"/>
<text text-anchor="middle" x="149.5" y="-684" font-family="Arial" font-size="10.00" fill="#ffffff">~:0:&lt;built&#45;in method builtins.exec&gt;</text>
<text text-anchor="middle" x="149.5" y="-673" font-family="Arial" font-size="10.00" fill="#ffffff">100.00%</text>
<text text-anchor="middle" x="149.5" y="-662" font-family="Arial" font-size="10.00" fill="#ffffff">(0.03%)</text>
<text text-anchor="middle" x="149.5" y="-651" font-family="Arial" font-size="10.00" fill="#ffffff">26×</text>
</a>
</g>
</g>
<!-- 169 -->
<g id="node10" class="node"><title>169</title>
<g id="a_node10"><a xlink:title="zoneamento_serial.py">
<polygon fill="#ff0000" stroke="#ff0000" points="226,-604 73,-604 73,-552 226,-552 226,-604"/>
<text text-anchor="middle" x="149.5" y="-592" font-family="Arial" font-size="10.00" fill="#ffffff">zoneamento_serial:1:&lt;module&gt;</text>
<text text-anchor="middle" x="149.5" y="-581" font-family="Arial" font-size="10.00" fill="#ffffff">100.00%</text>
<text text-anchor="middle" x="149.5" y="-570" font-family="Arial" font-size="10.00" fill="#ffffff">(0.00%)</text>
<text text-anchor="middle" x="149.5" y="-559" font-family="Arial" font-size="10.00" fill="#ffffff">1×</text>
</a>
</g>
</g>
<!-- 121&#45;&gt;169 -->
<g id="edge6" class="edge"><title>121&#45;&gt;169</title>
<path fill="none" stroke="#ff0000" stroke-width="4" d="M149.5,-643.93C149.5,-634.743 149.5,-624.166 149.5,-614.253"/>
<polygon fill="#ff0000" stroke="#ff0000" stroke-width="4" points="153,-614.248 149.5,-604.248 146,-614.248 153,-614.248"/>
<text text-anchor="middle" x="169" y="-627" font-family="Arial" font-size="10.00" fill="#ff0000">100.00%</text>
<text text-anchor="middle" x="169" y="-616" font-family="Arial" font-size="10.00" fill="#ff0000">1×</text>
</g>
<!-- 168 -->
<g id="node12" class="node"><title>168</title>
<g id="a_node12"><a xlink:title="zoneamento_serial.py">
<polygon fill="#fe0500" stroke="#fe0500" points="241,-512 58,-512 58,-460 241,-460 241,-512"/>
<text text-anchor="middle" x="149.5" y="-500" font-family="Arial" font-size="10.00" fill="#ffffff">zoneamento_serial:221:runAutomation</text>
<text text-anchor="middle" x="149.5" y="-489" font-family="Arial" font-size="10.00" fill="#ffffff">99.54%</text>
<text text-anchor="middle" x="149.5" y="-478" font-family="Arial" font-size="10.00" fill="#ffffff">(0.00%)</text>
<text text-anchor="middle" x="149.5" y="-467" font-family="Arial" font-size="10.00" fill="#ffffff">1×</text>
</a>
</g>
</g>
<!-- 169&#45;&gt;168 -->
<g id="edge10" class="edge"><title>169&#45;&gt;168</title>
<path fill="none" stroke="#fe0500" stroke-width="3.98" d="M149.5,-551.93C149.5,-542.743 149.5,-532.166 149.5,-522.253"/>
<polygon fill="#fe0500" stroke="#fe0500" stroke-width="3.98" points="153,-522.248 149.5,-512.248 146,-522.248 153,-522.248"/>
<text text-anchor="middle" x="166.5" y="-535" font-family="Arial" font-size="10.00" fill="#fe0500">99.54%</text>
<text text-anchor="middle" x="166.5" y="-524" font-family="Arial" font-size="10.00" fill="#fe0500">1×</text>
</g>
<!-- 140&#45;&gt;54 -->
<g id="edge7" class="edge"><title>140&#45;&gt;54</title>
<path fill="none" stroke="#0d1976" stroke-width="0.5" d="M360.6,-183.93C358.855,-172.712 356.788,-159.422 354.98,-147.798"/>
<polygon fill="#0d1976" stroke="#0d1976" stroke-width="0.5" points="356.176,-147.518 354.427,-144.248 353.755,-147.894 356.176,-147.518"/>
<text text-anchor="middle" x="373.5" y="-167" font-family="Arial" font-size="10.00" fill="#0d1976">2.88%</text>
<text text-anchor="middle" x="373.5" y="-156" font-family="Arial" font-size="10.00" fill="#0d1976">160×</text>
</g>
<!-- 168&#45;&gt;21 -->
<g id="edge8" class="edge"><title>168&#45;&gt;21</title>
<path fill="none" stroke="#0d1274" stroke-width="0.5" d="M132.787,-459.93C125.179,-448.518 116.142,-434.963 108.299,-423.198"/>
<polygon fill="#0d1274" stroke="#0d1274" stroke-width="0.5" points="109.293,-422.48 106.332,-420.248 107.254,-423.839 109.293,-422.48"/>
<text text-anchor="middle" x="141.5" y="-443" font-family="Arial" font-size="10.00" fill="#0d1274">1.22%</text>
<text text-anchor="middle" x="141.5" y="-432" font-family="Arial" font-size="10.00" fill="#0d1274">1×</text>
</g>
<!-- 168&#45;&gt;83 -->
<g id="edge9" class="edge"><title>168&#45;&gt;83</title>
<path fill="none" stroke="#fc1200" stroke-width="3.93" d="M187.941,-459.93C204.104,-449.389 223.071,-437.019 240.09,-425.92"/>
<polygon fill="#fc1200" stroke="#fc1200" stroke-width="3.93" points="242.387,-428.558 248.787,-420.248 238.602,-422.753 242.387,-428.558"/>
<text text-anchor="middle" x="252.5" y="-443" font-family="Arial" font-size="10.00" fill="#fc1200">98.25%</text>
<text text-anchor="middle" x="252.5" y="-432" font-family="Arial" font-size="10.00" fill="#fc1200">1×</text>
</g>
<!-- 220 -->
<g id="node13" class="node"><title>220</title>
<g id="a_node13"><a xlink:title="~">
<polygon fill="#f44502" stroke="#f44502" points="607,-52 438,-52 438,-0 607,-0 607,-52"/>
<text text-anchor="middle" x="522.5" y="-40" font-family="Arial" font-size="10.00" fill="#ffffff">~:0:&lt;built&#45;in method posix.waitpid&gt;</text>
<text text-anchor="middle" x="522.5" y="-29" font-family="Arial" font-size="10.00" fill="#ffffff">93.07%</text>
<text text-anchor="middle" x="522.5" y="-18" font-family="Arial" font-size="10.00" fill="#ffffff">(93.07%)</text>
<text text-anchor="middle" x="522.5" y="-7" font-family="Arial" font-size="10.00" fill="#ffffff">160×</text>
</a>
</g>
</g>
<!-- 221 -->
<g id="node14" class="node"><title>221</title>
<g id="a_node14"><a xlink:title="/usr/lib/python3.6/subprocess.py">
<polygon fill="#f44502" stroke="#f44502" points="588,-144 455,-144 455,-92 588,-92 588,-144"/>
<text text-anchor="middle" x="521.5" y="-132" font-family="Arial" font-size="10.00" fill="#ffffff">subprocess:1401:_try_wait</text>
<text text-anchor="middle" x="521.5" y="-121" font-family="Arial" font-size="10.00" fill="#ffffff">93.10%</text>
<text text-anchor="middle" x="521.5" y="-110" font-family="Arial" font-size="10.00" fill="#ffffff">(0.02%)</text>
<text text-anchor="middle" x="521.5" y="-99" font-family="Arial" font-size="10.00" fill="#ffffff">160×</text>
</a>
</g>
</g>
<!-- 221&#45;&gt;220 -->
<g id="edge11" class="edge"><title>221&#45;&gt;220</title>
<path fill="none" stroke="#f44502" stroke-width="3.72" d="M521.779,-91.93C521.882,-82.6458 522.001,-71.9433 522.112,-61.9398"/>
<polygon fill="#f44502" stroke="#f44502" stroke-width="3.72" points="525.473,-61.8845 522.219,-52.2477 518.753,-61.8098 525.473,-61.8845"/>
<text text-anchor="middle" x="539.5" y="-75" font-family="Arial" font-size="10.00" fill="#f44502">93.07%</text>
<text text-anchor="middle" x="539.5" y="-64" font-family="Arial" font-size="10.00" fill="#f44502">160×</text>
</g>
<!-- 275&#45;&gt;221 -->
<g id="edge14" class="edge"><title>275&#45;&gt;221</title>
<path fill="none" stroke="#f44502" stroke-width="3.72" d="M515.728,-183.93C516.554,-174.646 517.505,-163.943 518.394,-153.94"/>
<polygon fill="#f44502" stroke="#f44502" stroke-width="3.72" points="521.752,-154.108 519.256,-144.248 515.059,-153.512 521.752,-154.108"/>
<text text-anchor="middle" x="535.5" y="-167" font-family="Arial" font-size="10.00" fill="#f44502">93.10%</text>
<text text-anchor="middle" x="535.5" y="-156" font-family="Arial" font-size="10.00" fill="#f44502">160×</text>
</g>
</g>
</svg>
